<svg xmlns="http://www.w3.org/2000/svg" viewBox="0 0 120 120"><style>.icon-1-1{fill:none;stroke:#bdc5d1}.icon-1-3{fill:none;stroke:#fff}</style><circle class="fill-gray-400" opacity=".5" cx="72" cy="49.3" r="31.4" fill="#bdc5d1"/><path class="icon-1-1 fill-none stroke-gray-400" stroke-width="3" stroke-linecap="round" stroke-linejoin="round" stroke-miterlimit="10" d="M87.2 88.7l-9.3-9.2"/><circle class="fill-primary" cx="58.5" cy="54.7" r="31.4" fill="#377dff"/><path class="icon-1-3 fill-none stroke-white" stroke-width="3" stroke-linecap="round" stroke-linejoin="round" stroke-miterlimit="10" d="M80.3 41.6c2.5 4.2 3.7 9.1 3.5 13.9-.2 6.2-2.7 12.3-7.5 17-9.9 9.9-26 9.9-36 0-9.9-9.9-9.9-26 0-36 9.9-9.9 26-9.9 36 0"/><path class="icon-1-1 fill-none stroke-gray-400" stroke-width="3" stroke-linecap="round" stroke-linejoin="round" stroke-miterlimit="10" d="M86 77.6l6.2 6.2m23.7 28.7c-2.6 2.6-6.9 2.6-9.5 0L84.9 91.1l9.5-9.5 21.5 21.5c2.6 2.5 2.6 6.8 0 9.4z"/><path class="icon-1-3 fill-none stroke-white" stroke-width="3" stroke-linecap="round" stroke-linejoin="round" stroke-miterlimit="10" d="M54.5 37.9s-10.6.6-12.6 11.4"/><path class="icon-1-1 fill-none stroke-gray-400" stroke-width="3" stroke-linecap="round" stroke-linejoin="round" stroke-miterlimit="10" d="M36.6 83H7c-2.6 0-4.8-2.1-4.8-4.8V10.8C2.2 8.2 4.3 6 7 6h103.2c2.6 0 4.8 2.1 4.8 4.8v67.4c0 2.6-2.1 4.8-4.8 4.8H102"/><circle class="icon-1-1 fill-none stroke-gray-400" opacity=".5" stroke-width="3" stroke-linecap="round" stroke-linejoin="round" stroke-miterlimit="10" cx="35.2" cy="16" r="3.1"/><circle class="icon-1-1 fill-none stroke-gray-400" opacity=".5" stroke-width="3" stroke-linecap="round" stroke-linejoin="round" stroke-miterlimit="10" cx="23.6" cy="16" r="3.1"/><circle class="fill-none stroke-primary" stroke-width="3" stroke-linecap="round" stroke-linejoin="round" stroke-miterlimit="10" cx="12" cy="16" r="3.1" fill="none" stroke="#377dff"/></svg>